<svg width="54" height="54" viewBox="0 0 54 54" fill="none" xmlns="http://www.w3.org/2000/svg">
<path opacity="0.46" d="M27 54C41.9117 54 54 41.9117 54 27C54 12.0883 41.9117 0 27 0C12.0883 0 0 12.0883 0 27C0 41.9117 12.0883 54 27 54Z" fill="#00BEE3"/>
<path d="M27 50C39.7025 50 50 39.7025 50 27C50 14.2975 39.7025 4 27 4C14.2975 4 4 14.2975 4 27C4 39.7025 14.2975 50 27 50Z" fill="#00BEE3"/>
<path d="M17.0013 38C16.7733 37.789 16.8553 37.284 17.0013 37C17.2813 36.455 17.7073 36.537 18.0013 36C18.5173 35.059 19.2203 34.046 19.0013 33C18.9393 32.7 18.0473 32.3 18.0013 32C17.9013 31.335 18.6893 30.589 19.0013 30C19.4843 29.088 19.5273 27.917 20.0013 27C20.0583 26.889 20.0013 27.124 20.0013 27C20.0083 25.829 20.0013 24.171 20.0013 23C20.0013 22.924 19.9883 23.074 20.0013 23C20.0283 22.845 20.8443 23.008 21.0013 23C21.1583 22.992 20.9613 22.847 21.0013 23C21.0213 23.078 21.0013 22.918 21.0013 23C21.0013 23.737 21.0013 25.263 21.0013 26C21.1533 25.882 20.8773 25.119 21.0013 25C21.0443 24.959 21.0013 25.07 21.0013 25C21.0013 23.043 21.0013 20.956 21.0013 19C21.0013 18.385 21.3853 19 22.0013 19H33.0013C33.4013 19 34.0013 18.592 34.0013 19C34.0013 21.893 34.0013 25.107 34.0013 28C34.0013 28.334 33.2213 28.005 33.0013 28C32.7813 27.995 33.0013 28.323 33.0013 28C33.0013 25.244 33.0013 22.756 33.0013 20V19H22.0013V20C22.0013 21.86 22.0013 23.14 22.0013 25C22.0013 25.149 21.8633 24.909 22.0013 25C22.2933 25.2495 22.5322 25.5551 22.704 25.8986C22.8758 26.2422 22.9768 26.6167 23.0013 27C22.9383 27.572 23.1163 28.434 23.0013 29C22.9143 29.425 22.0873 29.575 22.0013 30C21.9843 30.083 21.9563 29.929 22.0013 30C22.4639 30.5938 22.8039 31.2736 23.0013 32H33.0013C33.0013 31.118 33.0013 29.882 33.0013 29C33.0013 28.938 32.9913 29.06 33.0013 29C33.0303 28.827 32.8283 29.008 33.0013 29C33.1743 28.992 33.9863 28.823 34.0013 29C34.0063 29.062 34.0013 28.938 34.0013 29C34.0013 29.978 34.0013 31.022 34.0013 32C33.9831 32.2592 33.8719 32.5031 33.6882 32.6869C33.5044 32.8706 33.2605 32.9818 33.0013 33H23.0013C23.0193 33.719 23.3173 34.341 23.0013 35H33.0013C33.7803 35 34.0013 34.777 34.0013 34C34.0013 28.9 34.0013 24.1 34.0013 19C34.0013 18.236 33.7643 17 33.0013 17H22.0013C21.2423 17 21.0013 18.244 21.0013 19C21.0013 20.068 21.0013 20.932 21.0013 22C21.0013 22.062 21.0073 21.938 21.0013 22C20.9833 22.192 21.1683 22 21.0013 22C20.8343 22 20.0013 22.194 20.0013 22C20.0013 20.774 19.9713 19.226 20.0013 18C20.0213 17.214 21.2013 17.038 22.0013 17C22.0293 17 21.9733 17 22.0013 17C25.7293 17 29.2733 17 33.0013 17C33.7743 17 34.8173 17.253 35.0013 18C35.0215 18.333 35.0215 18.667 35.0013 19C35.0013 24.119 35.0013 28.881 35.0013 34C34.9915 34.5274 34.7777 35.0304 34.4047 35.4034C34.0317 35.7764 33.5287 35.9903 33.0013 36C31.4513 36 29.5513 36 28.0013 36C27.9183 36 28.0563 35.949 28.0013 36C27.4359 36.506 26.7453 36.8514 26.0013 37C25.8013 37.058 25.1143 36.829 25.0013 37C24.8363 37.25 25.1833 37.761 25.0013 38H17.0013ZM27.0013 36C26.9373 35.987 27.0203 36 27.0013 36C25.5013 36 24.5013 35.994 23.0013 36C22.6685 35.9738 22.3341 35.9738 22.0013 36C21.8693 36.14 22.1373 35.864 22.0013 36C21.8653 36.136 22.1333 36.113 22.0013 36C21.8693 35.887 21.9013 36.146 22.0013 36C22.0503 35.926 21.9433 36.069 22.0013 36C22.661 35.1401 23.0132 34.0837 23.0013 33C22.9258 31.9318 22.5819 30.8999 22.0013 30C21.9013 29.852 21.9603 30.178 22.0013 30C22.2093 29.088 21.8013 27.915 22.0013 27C22.1237 26.6779 22.1237 26.3221 22.0013 26C21.9303 25.89 22.1223 26.03 22.0013 26C21.8403 25.96 21.0713 25.867 21.0013 26C20.2963 27.347 19.6963 28.648 19.0013 30C18.8683 30.258 19.0143 30.717 19.0013 31C18.9458 31.331 18.9458 31.669 19.0013 32C19.2833 33.324 19.6873 34.824 19.0013 36C18.8283 36.3 18.1583 36.694 18.0013 37C17.9713 37.059 18.0413 36.915 18.0013 37C19.8273 37 22.1753 37 24.0013 37C24.2833 37 24.7763 37.116 25.0013 37C25.2263 36.884 24.8523 37.231 25.0013 37C25.0933 36.857 24.8353 36.04 25.0013 36C25.5843 35.858 26.4423 36.326 27.0013 36Z" fill="white"/>
<path d="M28 26.9992H24C23.737 26.9921 23.4867 26.8845 23.3007 26.6985C23.1147 26.5124 23.0071 26.2622 23 25.9992C23 24.4842 23 23.5142 23 21.9992C23.0039 21.7352 23.1105 21.4831 23.2972 21.2964C23.4839 21.1096 23.736 21.003 24 20.9992C24.366 21.0102 24.666 21.1612 25 20.9992C25.2879 20.7813 25.639 20.6634 26 20.6634C26.361 20.6634 26.7121 20.7813 27 20.9992C27.3329 21.0238 27.6671 21.0238 28 20.9992C28.875 20.4582 29.137 20.5552 30 20.9992C30.3306 21.0592 30.6694 21.0592 31 20.9992C31.144 20.9902 30.857 20.9832 31 20.9992C31.348 21.0392 32 21.6222 32 21.9992C32 22.8672 32 23.1312 32 23.9992C32 24.6882 32 25.3102 32 25.9992C31.9754 26.2561 31.8621 26.4964 31.6797 26.6788C31.4972 26.8613 31.2569 26.9746 31 26.9992C29.801 27.0012 29.198 26.9992 28 26.9992ZM28 26.9992C28.077 26.9992 27.939 26.9992 28 26.9992C28.992 26.9992 30.008 26.9902 31 26.9992C31.2 26.9992 31 26.1992 31 25.9992C30.993 24.5992 31 23.3992 31 21.9992C31 21.4742 31.56 21.9172 31 21.9992C31 22.0612 31 21.9322 31 21.9992C31 22.3362 31 22.6622 31 22.9992C31 23.2992 30.214 22.9992 30 22.9992C29.786 22.9992 30 23.2862 30 22.9992C30 22.6822 30 22.3162 30 21.9992C30 21.5362 30.427 21.1672 30 20.9992C29.3577 20.7441 28.6423 20.7441 28 20.9992C27.869 21.0702 28 21.8342 28 21.9992C28.009 23.1422 28 23.8562 28 24.9992C28 25.0652 28 24.8992 28 24.9992C28.3071 24.8329 28.6508 24.7458 29 24.7458C29.3492 24.7458 29.6929 24.8329 30 24.9992C30 24.6152 29.994 24.3562 30 23.9992C30 23.7882 29.825 23.9992 30 23.9992C30.175 23.9992 31 23.7922 31 23.9992C31.006 24.5362 31.008 25.4622 31 25.9992C31 26.2922 30.262 26.1412 30 25.9992C29.861 25.9242 30.144 26.0642 30 25.9992C29.3474 25.8058 28.6526 25.8058 28 25.9992C27.578 26.1402 27.993 25.5592 28 25.9992C28 26.0332 27.997 26.9402 28 26.9992ZM27 24.9992V21.9992C27 21.6092 27.372 21.1402 27 20.9992C26.3555 20.7562 25.6445 20.7562 25 20.9992C24.875 21.0592 25 21.8652 25 21.9992C25.005 23.1632 25 23.8352 25 24.9992C25.3071 24.8329 25.6508 24.7458 26 24.7458C26.3492 24.7458 26.6929 24.8329 27 24.9992V24.9992ZM27 26.9992C27.048 26.4252 27.523 26.1442 27 25.9992C26.96 25.9882 27.04 26.0072 27 25.9992C26.35 25.7883 25.65 25.7883 25 25.9992C24.688 26.1992 23.993 26.3872 24 25.9992C24.022 24.7052 24 23.2932 24 21.9992C23.878 21.9992 24.094 22.0102 24 21.9992C23.8 21.9772 24 21.7992 24 21.9992C24.007 23.4722 24.008 24.5262 24 25.9992C24 26.2122 23.795 26.9992 24 26.9992C24.7 26.9882 25.3 26.9992 26 26.9992H27Z" fill="white"/>
<path d="M28.0024 28.9989C26.9634 28.9989 25.0414 29.0099 24.0024 28.9989C23.8874 28.9989 24.0764 29.0819 24.0024 28.9989C23.8604 28.8399 23.7874 28.0469 24.0024 27.9989C24.0684 27.9839 23.9334 27.9989 24.0024 27.9989H31.0024C31.2414 27.9989 31.0024 28.8099 31.0024 28.9989C31.0024 29.1879 31.2424 28.9989 31.0024 28.9989C29.9564 28.9999 29.0484 28.9989 28.0024 28.9989Z" fill="white"/>
<path d="M28.0004 29.9982H31.0004C31.0764 29.9982 30.9474 29.9622 31.0004 29.9982C31.1004 30.0652 30.9894 29.8982 31.0004 29.9982C31.0455 30.3301 31.0455 30.6664 31.0004 30.9982C30.9664 31.0372 31.0684 30.9982 31.0004 30.9982C28.9194 30.9982 26.0814 30.9982 24.0004 30.9982C23.9324 30.9982 24.0624 31.0212 24.0004 30.9982C23.8524 30.9422 23.9794 30.1532 24.0004 29.9982C24.0214 29.8432 23.8534 30.0182 24.0004 29.9982C24.0684 29.9892 24.9314 29.9982 25.0004 29.9982H28.0004Z" fill="white"/>
<path d="M27 34C27.0261 33.7437 27.1398 33.5042 27.322 33.322C27.5042 33.1398 27.7437 33.0261 28 33C28.484 33 28.007 33.521 28 34C27.993 34.479 28.475 35.014 28 35C27.7441 34.9728 27.5052 34.8587 27.3232 34.6768C27.1413 34.4948 27.0272 34.2559 27 34ZM27 34C27.006 34.154 27.852 33.983 28 34C28.148 34.017 28.01 34.135 28 34C27.99 33.865 28.153 34 28 34C27.847 34 27.015 33.849 27 34Z" fill="white"/>
<path d="M27.999 17.9992C28.199 17.9992 28.799 17.9992 28.999 17.9992C29.199 17.9992 28.99 17.8302 28.999 17.9992C29.008 18.1682 29.199 17.9992 28.999 17.9992C28.587 18.0062 27.411 18.0072 26.999 17.9992C26.808 17.9992 26.999 18.1732 26.999 17.9992C26.999 17.8252 27.799 17.9992 27.999 17.9992C27.793 17.9992 28.199 17.9992 27.999 17.9992Z" fill="white"/>
<path d="M27.0001 17.9983C26.9951 18.1703 26.1711 18.0063 26.0001 17.9983C25.8291 17.9903 25.9901 18.1703 26.0001 17.9983C26.0101 17.8263 25.8331 17.9983 26.0001 17.9983C26.1671 17.9983 27.0051 17.8283 27.0001 17.9983Z" fill="white"/>
</svg>
