<svg width="62" height="62" viewBox="0 0 62 62" fill="none" xmlns="http://www.w3.org/2000/svg">
<g filter="url(#filter0_d_352_135)">
<path opacity="0.35" d="M31 54C45.9117 54 58 41.9117 58 27C58 12.0883 45.9117 0 31 0C16.0883 0 4 12.0883 4 27C4 41.9117 16.0883 54 31 54Z" fill="#00BEE3"/>
<path d="M31 50C43.7025 50 54 39.7025 54 27C54 14.2975 43.7025 4 31 4C18.2975 4 8 14.2975 8 27C8 39.7025 18.2975 50 31 50Z" fill="#00BEE3"/>
<path d="M18 35.0806C18.1907 34.6766 18.5493 34.355 19 34.1841C19.3329 34.1621 19.6671 34.1621 20 34.1841C19.9032 33.2896 19.9032 32.3889 20 31.4944C19.987 29.0307 20 26.7857 20 24.322C20 24.2386 19.992 24.4045 20 24.322C20.021 24.114 19.791 24.322 20 24.322C20.209 24.322 19.979 24.1005 20 24.322C20.008 24.4045 20 24.2386 20 24.322C20 27.2107 20 30.3988 20 33.2875C20 33.3861 19.987 33.1898 20 33.2875C20.0905 33.4897 20.2258 33.6734 20.3977 33.8275C20.5695 33.9816 20.7744 34.1029 21 34.1841C21.075 34.1912 20.924 34.1841 21 34.1841H41C41.1339 34.1932 41.2685 34.1763 41.3944 34.1344C41.5204 34.0926 41.6347 34.0269 41.7297 33.9417C41.8247 33.8566 41.898 33.754 41.9447 33.6411C41.9913 33.5282 42.0102 33.4076 42 33.2875C42 31.7329 42 30.3594 42 28.8047C42 26.5535 42 23.8836 42 21.6323C42 21.5337 42.013 21.7301 42 21.6323C41.964 21.3553 41.305 20.7421 41 20.7358C40.308 20.7214 39.712 20.7358 39 20.7358V21.6323C39.47 21.6323 39.537 21.6323 40 21.6323C40.243 21.6841 40.4651 21.7953 40.6417 21.9536C40.8182 22.1119 40.9423 22.3111 41 22.5289C41 26.0998 41 29.7165 41 33.2875C41 33.6219 40.38 33.2875 40 33.2875H22C21.625 33.2875 21 33.6255 21 33.2875C21 29.7165 21 26.0998 21 22.5289C21.0636 22.3136 21.1896 22.1173 21.3652 21.9598C21.5409 21.8023 21.7599 21.6893 22 21.6323C22.464 21.6323 22.514 21.6323 23 21.6323V20.7358C22.484 20.7358 21.516 20.7358 21 20.7358C20.7507 20.7748 20.5209 20.8819 20.3419 21.0423C20.1629 21.2028 20.0436 21.4088 20 21.6323C19.989 21.9578 20 22.2025 20 22.5289C20 22.597 20.008 22.4616 20 22.5289C19.978 22.7297 20.2 23.4254 20 23.4254C19.8 23.4254 20 22.727 20 22.5289C19.9732 22.2305 19.9732 21.9307 20 21.6323C20.058 21.0514 20.326 20.7465 21 20.7358C21.592 20.7268 22.408 20.7358 23 20.7358C23.044 20.4184 22.623 20.0042 23 19.8392C23.294 19.711 23.634 19.0081 24 18.9427C24 18.4451 23.989 18.5841 24 18.0461C24 17.9152 24.933 17.2643 25 17.1496C25.157 16.8806 24.624 17.0339 25 17.1496C26.229 17.5288 27.772 17.6651 29 18.0461C29.566 18.2254 30.429 18.7795 31 18.9427C31.124 18.9785 30.876 18.9794 31 18.9427C31.881 18.68 33.124 18.3214 34 18.0461C34.194 17.9852 33.864 17.8919 34 18.0461C34.174 18.2452 34.309 18.8441 34 18.9427C33.372 19.1426 32.629 18.7454 32 18.9427C31.6106 19.1866 31.2721 19.4901 31 19.8392C30.859 20.0185 31 19.5756 31 19.8392C31 22.2043 31 24.6465 31 27.0116V27.9082C31.165 27.8616 31.869 27.9485 32 27.9082C33.588 27.4169 35.411 26.6037 37 26.1151C37.144 26.0712 37 26.2702 37 26.1151C36.994 23.4846 37 20.6766 37 18.0461C37 18.0156 37 18.1125 37 18.0461C36.706 18.1358 36.281 17.9565 36 18.0461C35.611 18.1663 35.088 18.2712 35 18.0461C34.912 17.8211 35.613 17.2688 36 17.1496C36.327 17.0492 36.67 17.2392 37 17.1496C37.469 17.0178 37.992 17.605 38 18.0461C38.009 18.524 38 18.4648 38 18.9427C38.368 19.009 38.708 19.7092 39 19.8392C39.367 20.0024 38.972 20.405 39 20.7358C39.592 20.7358 40.408 20.7286 41 20.7358C41.741 20.7447 41.94 20.9707 42 21.6323C42.009 21.7301 42 21.5337 42 21.6323C42 25.423 42 29.4969 42 33.2875C42 33.5565 42.03 33.9007 42 34.1841C42.2 34.1841 42.773 34.1841 43 34.1841C43.1352 34.1696 43.2723 34.1829 43.4009 34.2229C43.5296 34.2628 43.6464 34.3284 43.7427 34.4147C43.839 34.501 43.9121 34.6058 43.9567 34.7212C44.0013 34.8365 44.0161 34.9594 44 35.0806C44 35.407 44.007 35.6517 44 35.9772C44.0109 36.0974 43.9925 36.2183 43.9461 36.3315C43.8997 36.4447 43.8264 36.5475 43.7312 36.6327C43.6361 36.718 43.5215 36.7838 43.3952 36.8254C43.2689 36.867 43.1341 36.8835 43 36.8737C40.691 36.8737 38.309 36.8737 36 36.8737C35.723 36.8737 36 37.0781 36 36.8737C36 36.6693 35.706 35.9772 36 35.9772C38.241 35.9772 40.759 35.9772 43 35.9772C43.446 35.9772 43 36.3824 43 35.9772C43 35.7423 43 35.3155 43 35.0806C43 34.7686 43.345 35.0806 43 35.0806C41.765 35.0806 40.235 35.0806 39 35.0806H34C33.99 35.1981 34.012 34.9775 34 35.0806C33.9682 35.3084 33.8526 35.5203 33.6715 35.6827C33.4904 35.845 33.2541 35.9486 33 35.9772C31.909 35.9861 30.091 35.9852 29 35.9772C28.7439 35.9533 28.5047 35.8512 28.3226 35.6879C28.1405 35.5247 28.0266 35.3102 28 35.0806C27.99 34.9838 28.008 35.1936 28 35.0806H19C18.583 35.0806 19 34.7103 19 35.0806C19 35.3388 19 35.7198 19 35.9772C19 36.2345 18.7 35.9772 19 35.9772C20.066 35.9772 20.935 35.9772 22 35.9772H34C34.068 35.9772 33.932 35.9772 34 35.9772C34.4403 36.1616 34.7943 36.4789 35 36.8737C35 37.0817 34.274 36.8665 34 36.8737C33.932 36.8737 34.068 36.8737 34 36.8737C29.138 36.8737 23.862 36.8603 19 36.8737C18.325 36.8737 18.229 36.559 18 35.9772V35.0806ZM39 22.5289C39 24.1893 39 26.2478 39 27.9082C39.0161 28.0294 39.0013 28.1523 38.9567 28.2676C38.9121 28.383 38.839 28.4878 38.7427 28.5741C38.6464 28.6604 38.5296 28.726 38.4009 28.7659C38.2723 28.8059 38.1352 28.8192 38 28.8047H24C23.8637 28.8243 23.7242 28.8146 23.5929 28.7765C23.4616 28.7383 23.3423 28.6728 23.2447 28.5853C23.1471 28.4978 23.0741 28.3909 23.0315 28.2732C22.989 28.1554 22.9782 28.0304 23 27.9082C23 26.2558 23 24.1812 23 22.5289H22V32.391H40V22.5289H39ZM25 18.0461C24.995 18.1053 25 18.0165 25 18.0461C25 20.6838 25.008 23.4774 25 26.1151C25 26.281 24.867 26.0738 25 26.1151C26.245 26.4979 27.756 26.627 29 27.0116C29.469 27.1569 30.511 27.7567 31 27.9082C31.008 27.823 31 27.0699 31 27.0116C31 24.4116 30.994 22.4392 31 19.8392C31 19.6778 30.158 18.9902 30 18.9427C29.288 18.7293 28.71 19.1623 28 18.9427C26.996 18.6352 26.032 18.3662 25 18.0461ZM24 27.9082H29C28.938 27.8589 28.069 27.9297 28 27.9082C26.892 27.5639 26.108 27.3541 25 27.0116C24.5 26.8574 24 26.5983 24 26.1151C24 24.2664 24 22.5845 24 20.7358V19.8392V27.9082ZM38 27.9082V19.8392V20.7358C38 22.5934 38 24.2574 38 26.1151C38 26.5338 37.429 26.8781 37 27.0116C36.442 27.1847 35.558 26.8386 35 27.0116C34.366 27.208 33.634 27.711 33 27.9082H38ZM29 35.0806C28.964 35.4392 29.636 35.0806 30 35.0806H32C32.368 35.0806 33.074 35.4195 33 35.0806H29Z" fill="white"/>
<path d="M31.0023 29.7029H36.0023C36.0953 29.7029 35.9123 29.6867 36.0023 29.7029C36.2023 29.7396 36.0093 29.5235 36.0023 29.7029C35.9953 29.8822 36.2023 29.6777 36.0023 29.7029C35.9193 29.7136 36.0863 29.7029 36.0023 29.7029H26.0023C25.5973 29.7029 25.9933 29.9395 26.0023 29.7029C26.0113 29.4662 25.6023 29.7029 26.0023 29.7029H31.0023Z" fill="white"/>
<path d="M29.0037 31.4956C27.9557 31.4956 27.0517 31.4956 26.0037 31.4956C25.7947 31.4956 26.0767 31.6749 26.0037 31.4956C25.9307 31.3162 25.7907 30.6492 26.0037 30.599C26.0917 30.5784 25.9117 30.599 26.0037 30.599C28.0407 30.599 29.9667 30.599 32.0037 30.599C32.0457 30.599 31.9617 30.599 32.0037 30.599C32.4477 30.7787 32.8033 31.0975 33.0037 31.4956C33.0037 31.6982 32.2797 31.4956 32.0037 31.4956C30.9387 31.4974 30.0637 31.4956 29.0037 31.4956Z" fill="white"/>
</g>
<defs>
<filter id="filter0_d_352_135" x="0" y="0" width="62" height="62" filterUnits="userSpaceOnUse" color-interpolation-filters="sRGB">
<feFlood flood-opacity="0" result="BackgroundImageFix"/>
<feColorMatrix in="SourceAlpha" type="matrix" values="0 0 0 0 0 0 0 0 0 0 0 0 0 0 0 0 0 0 127 0" result="hardAlpha"/>
<feOffset dy="4"/>
<feGaussianBlur stdDeviation="2"/>
<feComposite in2="hardAlpha" operator="out"/>
<feColorMatrix type="matrix" values="0 0 0 0 0 0 0 0 0 0 0 0 0 0 0 0 0 0 0.25 0"/>
<feBlend mode="normal" in2="BackgroundImageFix" result="effect1_dropShadow_352_135"/>
<feBlend mode="normal" in="SourceGraphic" in2="effect1_dropShadow_352_135" result="shape"/>
</filter>
</defs>
</svg>
