<svg width="54" height="54" viewBox="0 0 54 54" fill="none" xmlns="http://www.w3.org/2000/svg">
<path opacity="0.46" d="M27 54C41.9117 54 54 41.9117 54 27C54 12.0883 41.9117 0 27 0C12.0883 0 0 12.0883 0 27C0 41.9117 12.0883 54 27 54Z" fill="#00BEE3"/>
<path d="M27 50C39.7025 50 50 39.7025 50 27C50 14.2975 39.7025 4 27 4C14.2975 4 4 14.2975 4 27C4 39.7025 14.2975 50 27 50Z" fill="#00BEE3"/>
<path d="M16.999 16.999C17.089 16.816 16.879 17.161 16.999 16.999C17.232 16.683 17.604 16.007 17.999 15.999C18.277 15.993 18.721 15.999 18.999 15.999C19.231 15.999 19.999 15.799 19.999 15.999C19.7748 16.426 19.426 16.7748 18.999 16.999C18.735 16.999 18.263 16.999 17.999 16.999C17.608 17.006 18.005 16.606 17.999 16.999C17.999 17.29 17.999 17.699 17.999 17.999H28.999C28.999 17.644 29.029 17.344 28.999 16.999C28.975 16.719 29.294 17.01 28.999 16.999C28.771 16.99 28.227 16.999 27.999 16.999H20.999C20.928 16.999 21.068 17.013 20.999 16.999C20.826 16.964 20.999 16.166 20.999 15.999C20.999 15.832 20.836 16.03 20.999 15.999C21.068 15.986 20.928 15.999 20.999 15.999H27.999C28.882 15.999 29.999 16.112 29.999 16.999C29.999 19.599 29.999 22.399 29.999 24.999V25.999C30.464 25.41 30.309 24.822 30.999 24.999C31.1431 24.6095 31.4299 24.2894 31.8014 24.1037C32.1728 23.918 32.601 23.8806 32.999 23.999C33.03 23.93 32.969 24.062 32.999 23.999C33.5119 23.4204 34.2284 23.0622 34.999 22.999C35.553 22.964 35.732 23.499 35.999 23.999C36.789 25.2671 37.4586 26.6063 37.999 27.999C38.133 28.405 37.868 28.593 37.999 28.999C38.13 29.405 38.833 29.615 38.999 29.999C39.1772 30.5401 39.1762 31.1243 38.996 31.6647C38.8159 32.2052 38.4663 32.6731 37.999 32.999C37.764 33.138 38.108 33.184 37.999 32.999C37.89 32.814 37.774 32.141 37.999 31.999C38.675 31.573 38.31 31.732 37.999 30.999C37.808 30.549 38.133 29.47 37.999 28.999C37.7747 27.9659 37.4395 26.9601 36.999 25.999C36.64 25.31 35.362 24.686 34.999 23.999C34.857 23.731 35.305 23.999 34.999 23.999C34.693 23.999 34.159 23.722 33.999 23.999C33.882 24.3221 33.882 24.676 33.999 24.999C34.179 25.315 34.833 25.676 34.999 25.999C35.111 26.217 34.181 25.905 33.999 25.999C33.817 26.093 34.111 26.207 33.999 25.999C33.834 25.691 34.161 25.308 33.999 24.999C33.837 24.69 33.335 24.934 32.999 24.999C32.663 25.064 32.077 24.667 31.999 24.999C31.9591 25.3312 31.9591 25.6669 31.999 25.999C32.158 26.341 32.826 26.663 32.999 26.999C33.111 27.218 33.176 26.905 32.999 26.999C32.822 27.093 32.118 27.223 31.999 26.999C31.838 26.699 32.158 26.299 31.999 25.999C31.84 25.699 31.331 25.971 30.999 25.999C30.44 26.047 29.743 26.499 29.999 26.999C30.143 27.278 30.854 27.721 30.999 27.999C31.128 28.246 31.186 27.899 30.999 27.999C30.812 28.099 30.136 28.26 29.999 27.999C29.128 26.339 28.869 24.659 27.999 22.999C27.761 22.559 27.394 21.816 26.999 21.999C26.577 22.199 25.826 22.569 25.999 22.999C26.055 23.137 25.93 23.867 25.999 23.999C26.941 25.799 28.056 27.199 28.999 28.999C29.012 29.024 28.984 28.974 28.999 28.999C29.1221 29.321 29.1221 29.6771 28.999 29.999C28.857 30.137 29.156 30.083 28.999 29.999C28.458 29.711 27.541 29.285 26.999 28.999C26.849 28.9055 26.6758 28.8559 26.499 28.8559C26.3223 28.8559 26.149 28.9055 25.999 28.999C25.738 29.217 25.899 29.693 25.999 29.999C26.074 30.224 25.792 29.899 25.999 29.999C27.559 30.768 29.437 32.235 30.999 32.999C31.4389 33.2054 31.7927 33.5592 31.999 33.999C32.399 34.73 33.253 34.375 33.999 33.999C34.61 33.691 35.39 33.31 35.999 32.999C36.089 32.953 35.925 32.964 35.999 32.999C36.099 33.047 35.98 33.899 35.999 33.999C36.018 34.099 36.081 33.955 35.999 33.999C35.291 34.383 34.737 34.681 33.999 34.999C33.057 35.405 32.494 34.899 31.999 33.999C31.7721 33.574 31.4241 33.226 30.999 32.999C30.689 32.86 30.348 33.17 29.999 32.999C29.999 34.112 29.969 34.886 29.999 35.999C30.02 36.785 29.775 37.747 28.999 37.999H17.999C17.7558 37.9419 17.5334 37.818 17.3568 37.6413C17.1801 37.4647 17.0562 37.2422 16.999 36.999V16.999ZM28.999 18.999H17.999V33.999H28.999C28.999 33.599 29.009 33.389 28.999 32.999C29.0252 32.6662 29.0252 32.3319 28.999 31.999C27.982 31.499 27.035 31.499 25.999 30.999C26.019 30.99 26.004 30.999 25.999 30.999C25.4793 31.5687 24.7666 31.9251 23.999 31.999C23.4622 32.0447 22.922 31.9725 22.4159 31.7876C21.9099 31.6027 21.4504 31.3096 21.0695 30.9286C20.6885 30.5477 20.3954 30.0882 20.2105 29.5821C20.0256 29.0761 19.9534 28.5358 19.999 27.999C20.1201 27.1571 20.5406 26.387 21.1835 25.83C21.8263 25.273 22.6484 24.9663 23.499 24.9663C24.3497 24.9663 25.1718 25.273 25.8146 25.83C26.4575 26.387 26.878 27.1571 26.999 27.999C27.007 28.056 26.951 27.975 26.999 27.999C27.304 28.151 27.69 28.855 27.999 28.999C27.936 28.874 28.035 28.068 27.999 27.999C27.251 26.572 26.74 25.429 25.999 23.999C25.918 23.843 25.172 23.999 24.999 23.999C22.986 24.005 21.012 23.999 18.999 23.999C18.439 23.999 18.999 23.559 18.999 22.999C18.999 22.314 18.999 21.684 18.999 20.999C18.999 20.407 18.411 19.999 18.999 19.999H25.999C26.67 19.999 27.328 19.999 27.999 19.999C28.48 19.999 27.991 20.516 27.999 20.999C27.999 21.17 27.999 20.828 27.999 20.999C27.9442 21.6646 27.9442 22.3335 27.999 22.999C28.116 23.456 28.775 23.569 28.999 23.999C29.022 24.043 28.949 23.927 28.999 23.999V18.999ZM28.999 33.999H17.999C17.999 34.756 17.999 36.258 17.999 36.999C17.999 37.469 17.524 36.999 17.999 36.999H27.999C28.469 36.999 28.999 37.474 28.999 36.999C28.999 36.307 28.999 35.691 28.999 34.999C28.999 34.95 29.003 34.059 28.999 33.999ZM20.999 27.999C20.999 29.128 20.961 30.559 21.999 30.999C23.099 31.466 24.083 31.766 24.999 30.999C25.089 30.6718 25.089 30.3263 24.999 29.999C24.621 29.267 25.253 28.345 25.999 27.999C26.152 27.928 26.025 28.157 25.999 27.999C25.8472 27.3466 25.4524 26.7766 24.8951 26.405C24.3377 26.0334 23.6597 25.8882 22.999 25.999C21.477 26.121 21.008 26.514 20.999 27.999ZM27.999 21.999C27.999 21.704 27.986 21.26 27.999 20.999C28.009 20.799 27.199 20.999 26.999 20.999C24.324 21.005 21.674 20.999 18.999 20.999C18.814 20.999 18.999 20.811 18.999 20.999C19.007 21.655 18.999 22.343 18.999 22.999C18.999 23.299 18.706 22.999 18.999 22.999H24.999C24.808 21.721 26.845 21.21 27.999 21.999Z" fill="white"/>
<path d="M23.0019 36.998C22.6949 36.998 23.3089 37.007 23.0019 36.998C22.7422 36.9811 22.4976 36.8703 22.3136 36.6863C22.1296 36.5023 22.0188 36.2577 22.0019 35.998C22.0019 35.498 21.4879 35.009 22.0019 34.998C22.6299 34.985 23.3739 34.985 24.0019 34.998C24.2671 34.998 24.5215 35.1034 24.709 35.2909C24.8965 35.4785 25.0019 35.7328 25.0019 35.998C25.0019 36.2632 24.8965 36.5176 24.709 36.7052C24.5215 36.8927 24.2671 36.998 24.0019 36.998C23.6879 37.007 23.3189 36.998 23.0019 36.998ZM23.0019 35.998H24.0019C24.1559 35.998 25.0019 36.175 25.0019 35.998C25.0019 35.837 24.1469 35.998 24.0019 35.998H23.0019C22.8499 35.998 22.0019 35.817 22.0019 35.998C22.0019 36.179 22.8599 35.998 23.0019 35.998Z" fill="white"/>
<path d="M22.9952 29.0015C23.1102 28.8655 22.8952 29.1015 22.9952 29.0015C23.5682 28.4245 24.4182 27.5755 24.9952 27.0015C25.1662 26.8315 24.8522 26.8665 24.9952 27.0015C25.076 27.1558 25.1182 27.3273 25.1182 27.5015C25.1182 27.6756 25.076 27.8472 24.9952 28.0015C24.2602 28.7395 23.7332 29.2665 22.9952 30.0015C22.848 30.1023 22.6737 30.1563 22.4952 30.1563C22.3167 30.1563 22.1425 30.1023 21.9952 30.0015C21.7102 29.7215 22.2752 29.2865 21.9952 29.0015C21.9162 28.8466 21.875 28.6753 21.875 28.5015C21.875 28.3276 21.9162 28.1563 21.9952 28.0015C22.1382 27.8515 21.8172 27.8235 21.9952 28.0015C22.2122 28.2175 22.7322 28.7315 22.9952 29.0015Z" fill="white"/>
</svg>
