<svg width="58" height="58" viewBox="0 0 58 58" fill="none" xmlns="http://www.w3.org/2000/svg">
<path opacity="0.4" d="M29 58C45.0163 58 58 45.0163 58 29C58 12.9837 45.0163 0 29 0C12.9837 0 0 12.9837 0 29C0 45.0163 12.9837 58 29 58Z" fill="#00BEE3"/>
<path d="M29 52C41.7025 52 52 41.7025 52 29C52 16.2975 41.7025 6 29 6C16.2975 6 6 16.2975 6 29C6 41.7025 16.2975 52 29 52Z" fill="#00BEE3"/>
<path d="M19 40V18H35C35 24.3 35 30.7 35 37C35 37.165 35.117 36.885 35 37C34.174 37.817 32.821 39.178 32 40C31.95 40.051 32.048 39.947 32 40H30C30.011 39.793 29.987 39.232 30 39H32V37H34V19H19V39H28C28.014 39.236 27.988 39.787 28 40H19ZM32 39L34 37H32V39Z" fill="white"/>
<path d="M28.996 40C29.008 39.788 28.983 39.218 28.996 39C29.008 39.218 28.984 39.788 28.996 40Z" fill="white"/>
<path d="M27.999 24H25.999C25.936 23.211 25.507 22.621 25.999 22C26.5133 21.4877 27.1567 21.1242 27.861 20.9481C28.5653 20.7721 29.3041 20.79 29.999 21C30.6035 21.2291 31.1214 21.6414 31.48 22.1793C31.8386 22.7173 32.0201 23.3539 31.999 24C31.9308 24.6239 31.7135 25.2222 31.3654 25.7443C31.0173 26.2665 30.5486 26.6972 29.999 27C29.87 27.06 29.999 26.839 29.999 27C29.999 27.2652 29.8936 27.5196 29.7061 27.7071C29.5185 27.8947 29.2642 28 28.999 28C28.7338 28 28.4794 27.8947 28.2919 27.7071C28.1043 27.5196 27.999 27.2652 27.999 27C27.994 26.712 27.999 26.289 27.999 26C27.999 25.334 28.335 25.043 28.999 25C29.635 24.959 30.172 24.606 29.999 24C29.871 23.554 29.445 22.95 28.999 23C28.7468 23.0368 28.5133 23.154 28.3331 23.3341C28.1529 23.5143 28.0357 23.7479 27.999 24C27.991 24.12 27.999 23.869 27.999 24ZM28.999 26C30.073 25.548 30.708 25.455 30.999 25C31.1325 24.6836 31.2013 24.3435 31.2013 24C31.2013 23.6565 31.1325 23.3165 30.999 23C30.718 21.94 29.06 21.872 27.999 22C27.4899 22.0616 27.0163 22.2921 26.6537 22.6547C26.2911 23.0173 26.0606 23.491 25.999 24H26.999C27.021 23.931 26.975 23.067 26.999 23C27.1686 22.6305 27.4593 22.3299 27.823 22.148C28.1867 21.9662 28.6016 21.914 28.999 22C29.747 22.136 30.006 23.223 29.999 24C29.991 24.853 29.862 25.947 28.999 26C28.689 26.019 27.999 25.693 27.999 26C27.999 26.281 27.994 26.719 27.999 27C27.999 27.215 28.815 27 28.999 27C29.183 27 28.994 27.215 28.999 27C29.004 26.785 28.999 26.197 28.999 26Z" fill="white"/>
<path d="M21 34.0039V33.0039H31V34.0039H21Z" fill="white"/>
<path d="M26 36V35H31V36H26Z" fill="white"/>
<path d="M26 35V36H21V35H26Z" fill="white"/>
<path d="M29.0001 29.0013C29.5431 29.0013 30.0001 28.4623 30.0001 29.0013C29.9947 29.2648 29.8876 29.5161 29.7012 29.7024C29.5148 29.8888 29.2636 29.9959 29.0001 30.0013C28.7382 29.9909 28.4898 29.8822 28.3044 29.6969C28.1191 29.5116 28.0104 29.2632 28.0001 29.0013C27.9941 28.4613 28.4591 29.0033 29.0001 29.0013ZM29.0001 29.0013C29.0001 28.8293 29.1741 29.0073 29.0001 29.0013C28.8261 28.9953 28.0001 28.8203 28.0001 29.0013C28.2449 29.4127 28.5886 29.7564 29.0001 30.0013C29.1751 30.0093 28.9981 29.1793 29.0001 29.0013Z" fill="white"/>
<path d="M24 23V24H21V23H24Z" fill="white"/>
<path d="M21 27V26H24V27H21Z" fill="white"/>
<path d="M34 19V20H33V19H34Z" fill="white"/>
<path d="M39.001 24.0008V22.0008H38.001V34.0008H37.001V22.0008V36.0008V35.0008H38.001V36.0008C38.223 36.0168 38.775 35.9838 39.001 36.0008V24.0008C39.001 28.0918 39.007 32.9098 39.001 37.0008C39.001 37.1268 39.071 36.8948 39.001 37.0008C38.556 37.6748 38.454 38.3328 38.001 39.0008C37.957 39.0658 38.061 38.9148 38.001 39.0008C37.837 38.7598 37.153 39.2258 37.001 39.0008C36.649 38.4818 36.347 37.5238 36.001 37.0008C35.946 36.9168 36.001 37.1008 36.001 37.0008C36.001 31.4168 36.001 25.5848 36.001 20.0008C35.9968 19.8684 36.0199 19.7365 36.0686 19.6133C36.1174 19.49 36.1909 19.3781 36.2846 19.2844C36.3783 19.1907 36.4903 19.1172 36.6135 19.0684C36.7367 19.0197 36.8686 18.9967 37.001 19.0008C37.426 18.9898 37.576 18.9888 38.001 19.0008C38.1334 18.9968 38.2653 19.0199 38.3884 19.0687C38.5115 19.1176 38.6234 19.1911 38.7171 19.2848C38.8107 19.3784 38.8842 19.4903 38.9331 19.6134C38.9819 19.7366 39.005 19.8684 39.001 20.0008C39.001 21.1188 39.001 21.8828 39.001 23.0008V24.0008ZM39.001 22.0008C39.001 21.4518 39.008 20.5328 39.001 20.0008C39.001 19.8058 38.189 20.0058 38.001 20.0008C37.569 19.9888 37.433 19.9938 37.001 20.0008C36.823 20.0008 37.001 19.8188 37.001 20.0008C36.988 20.5458 37.001 21.4448 37.001 22.0008H39.001ZM38.001 38.0008C38.315 37.5378 38.717 37.4418 39.001 37.0008C39.034 36.9488 39.048 37.0368 39.001 37.0008C38.6884 36.6474 38.3544 36.3134 38.001 36.0008C37.627 35.9908 37.375 35.9908 37.001 36.0008C36.901 36.0008 37.079 36.9408 37.001 37.0008C36.954 37.0368 36.968 36.9498 37.001 37.0008C37.285 37.4428 37.686 37.5358 38.001 38.0008Z" fill="white"/>
</svg>
