<svg width="54" height="54" viewBox="0 0 54 54" fill="none" xmlns="http://www.w3.org/2000/svg">
<path opacity="0.46" d="M27 54C41.9117 54 54 41.9117 54 27C54 12.0883 41.9117 0 27 0C12.0883 0 0 12.0883 0 27C0 41.9117 12.0883 54 27 54Z" fill="#00BEE3"/>
<path d="M27.1484 50C39.851 50 50.1484 39.7025 50.1484 27C50.1484 14.2975 39.851 4 27.1484 4C14.4459 4 4.14844 14.2975 4.14844 27C4.14844 39.7025 14.4459 50 27.1484 50Z" fill="#00BEE3"/>
<path d="M22.8102 16.0008H36.2917C36.2917 16.0848 36.2917 15.9168 36.2917 16.0008C36.2917 19.7428 36.2917 24.2588 36.2917 28.0008C36.2917 28.1578 36.1454 27.9168 36.2917 28.0008C36.5727 28.1628 37.0446 28.8458 37.3287 29.0008C37.4946 29.0918 37.1441 29.0008 37.3287 29.0008C38.1366 29.0188 39.632 29.0008 40.4398 29.0008C39.7263 29.0008 39.0792 28.9908 38.3657 29.0008C37.8597 29.0078 36.7065 29.2778 36.2917 29.0008C35.5357 28.5008 34.9777 28.4938 34.2176 28.0008C33.9863 27.8508 33.4585 26.9878 33.1806 27.0008C33.1235 27.0008 33.194 26.9568 33.1806 27.0008C33.082 27.3138 33.2708 27.6758 33.1806 28.0008C33.248 28.0178 33.1329 27.9878 33.1806 28.0008C33.8868 28.2008 34.6272 29.4178 34.2176 30.0008C33.9697 30.3538 33.6057 30.0008 33.1806 30.0008C32.016 30.0008 30.197 30.0008 29.0324 30.0008C28.8727 30.0008 29.1911 30.9858 29.0324 31.0008C28.5066 31.0508 27.9466 31.5008 27.9954 32.0008C28.7524 32.0008 29.3124 32.0188 30.0694 32.0008C31.0985 31.8259 32.1515 31.8259 33.1806 32.0008C34.1983 32.2733 35.2739 32.2733 36.2917 32.0008C37.3262 31.9019 38.3683 31.9019 39.4028 32.0008C39.8031 31.9928 40.0395 32.0078 40.4398 32.0008C39.074 31.9008 37.6004 32.6158 36.2917 33.0008V36.0008H31.1065V38.0008H17.625V18.0008H22.8102V16.0008ZM18.662 19.0008V37.0008H31.1065V34.0008C30.672 33.8708 30.197 34.8338 30.0694 35.0008C30.0954 34.9008 30.0694 34.0878 30.0694 34.0008C30.0694 33.9138 30.1286 34.0468 30.0694 34.0008C29.5934 33.6278 28.8706 33.5698 29.0324 33.0008C29.0697 32.8678 28.992 32.1558 29.0324 32.0008H27.9954C27.3607 32.0008 27.1139 32.5878 26.9583 32.0008C26.7779 32.0008 27.1305 31.0378 26.9583 31.0008C26.137 30.8248 25.382 30.6278 25.9213 30.0008C26.109 29.7828 26.7084 29.2528 26.9583 29.0008H25.9213V28.0008H26.9583C27.0226 28.0008 27.958 28.0338 27.9954 28.0008C28.2266 27.8008 27.7724 28.2128 27.9954 28.0008H25.9213V27.0008C26.977 27.0008 27.9767 27.0008 29.0324 27.0008C29.1226 27.0008 28.9598 27.0458 29.0324 27.0008C29.3632 26.8008 29.6806 26.9928 30.0694 27.0008C30.2769 27.0008 30.8991 27.0008 31.1065 27.0008V19.0008H23.8472V18.0008H31.1065V24.0008C31.1635 23.9438 32.1259 24.0648 32.1435 24.0008C32.436 22.9588 31.85 22.0428 32.1435 21.0008C32.3138 20.6268 32.6144 20.3221 32.9932 20.1395C33.372 19.9568 33.8052 19.9078 34.2176 20.0008C34.958 20.1498 35.4558 20.2708 35.2546 21.0008C34.8689 22.4008 34.6096 24.6008 34.2176 26.0008C34.1139 26.3718 34.3286 26.6008 34.2176 27.0008C34.957 26.9738 34.6832 26.6808 35.2546 27.0008V17.0008H22.8102V19.0008H18.662ZM35.2546 33.0008C34.6718 32.9418 34.7745 33.1068 34.2176 33.0008C33.6607 32.8948 32.7066 32.1608 32.1435 32.0008C32.1186 32.0788 32.1612 32.9418 32.1435 33.0008C32.0398 33.3438 32.2586 33.6618 32.1435 34.0008C32.0989 34.1308 31.1158 33.8748 31.1065 34.0008C31.0795 34.3608 31.1065 34.6298 31.1065 35.0008H35.2546V33.0008ZM32.1435 30.0008C32.6133 28.3268 32.7087 26.6848 33.1806 25.0008C32.7585 24.8648 32.5583 24.1348 32.1435 24.0008C31.6354 25.8138 31.6146 28.1868 31.1065 30.0008H32.1435ZM31.1065 27.0008C30.7075 27.0184 30.3167 27.1164 29.9595 27.2887C29.6022 27.4609 29.2864 27.7035 29.0324 28.0008C28.2816 28.7248 27.7081 29.2758 26.9583 30.0008C26.8971 30.0598 27.004 29.9308 26.9583 30.0008C26.8426 30.3248 26.8426 30.6768 26.9583 31.0008C27.0817 31.1428 26.7893 31.1008 26.9583 31.0008C27.032 30.9588 26.8971 31.0598 26.9583 31.0008C27.5049 30.4758 28.4911 29.5308 29.0324 29.0008C29.3684 28.6718 29.5789 28.0488 30.0694 28.0008C30.1275 27.9948 30.0549 28.0478 30.0694 28.0008C30.1659 27.6948 31.0152 27.3278 31.1065 27.0008V27.0008ZM34.2176 23.0008C34.3721 22.4468 34.0828 21.5298 34.2176 21.0008C34.2788 20.7618 34.425 20.1438 34.2176 20.0008C33.8463 19.7508 33.3164 20.5708 33.1806 21.0008C33.0831 21.3088 33.2666 21.6898 33.1806 22.0008C33.1349 22.1668 33.2262 21.8258 33.1806 22.0008C33.5974 22.1348 33.7934 22.8658 34.2176 23.0008V23.0008ZM31.1065 32.0008C30.8441 32.0008 31.3305 32.0008 31.1065 32.0008C30.8825 32.0008 30.197 31.9008 30.0694 32.0008C29.9419 32.1008 30.1234 32.8008 30.0694 33.0008C29.9751 33.3528 29.7438 33.9008 30.0694 34.0008C30.4397 34.1158 30.9872 33.3418 31.1065 33.0008C31.2143 32.6908 31.0049 32.3528 31.1065 32.0008V32.0008ZM32.1435 24.0008C32.5708 24.1368 32.7657 23.8688 33.1806 24.0008C33.249 23.7528 34.1523 23.2358 34.2176 23.0008C33.7966 22.8668 32.5583 23.1338 32.1435 23.0008C32.0751 23.2428 32.212 23.7548 32.1435 24.0008V24.0008ZM33.1806 30.0008C33.3185 29.9938 33.0841 30.0238 33.1806 30.0008C33.3548 29.9598 33.1806 29.1798 33.1806 29.0008C33.1806 28.8218 33.3465 29.0468 33.1806 29.0008C33.0872 28.9748 33.2065 28.8808 33.1806 29.0008C33.1401 29.1848 33.2397 29.7878 33.1806 30.0008V30.0008ZM30.0694 29.0008C29.6754 29.0958 29.3134 29.7318 29.0324 30.0008C29.2668 30.0008 29.89 30.0118 30.0694 30.0008C30.1192 30.0008 30.0549 30.0428 30.0694 30.0008C30.1286 29.8278 30.0155 29.1988 30.0694 29.0008V29.0008Z" fill="white"/>
<path d="M19.6953 23V20H29.0286V23H19.6953ZM19.6953 22H27.9916V20H19.6953V22Z" fill="white"/>
<path d="M21.7616 25V26H19.6875V29H22.7986V27H23.8356V29H19.6875V25H21.7616Z" fill="white"/>
<path d="M23.8435 33V35H19.6953V31H21.7694V32H19.6953V35H22.8064V33H23.8435Z" fill="white"/>
<path d="M20.7344 33C20.8578 33.148 21.6283 32.829 21.7714 33C22.9339 31.881 23.7812 31.061 24.8825 30C23.6049 31.23 23.0439 32.775 21.7714 34L20.7344 33Z" fill="white"/>
<path d="M21.7714 28L20.7344 27C20.8381 27.137 21.6366 26.831 21.7714 27L24.8825 24C23.6007 25.238 23.0366 26.78 21.7714 28Z" fill="white"/>
<path d="M29.0388 35V36H24.8906V35H29.0388Z" fill="white"/>
<path d="M30.0605 35V36H29.0234V35H30.0605Z" fill="white"/>
<path d="M21.7714 22H20.7344V21H21.7714V22Z" fill="white"/>
<path d="M22.8105 22H21.7734V21H22.8105V22Z" fill="white"/>
<path d="M25.9198 21V22H24.8828V21H25.9198Z" fill="white"/>
</svg>
