<svg width="54" height="54" viewBox="0 0 54 54" fill="none" xmlns="http://www.w3.org/2000/svg">
<path opacity="0.46" d="M27 54C41.9117 54 54 41.9117 54 27C54 12.0883 41.9117 0 27 0C12.0883 0 0 12.0883 0 27C0 41.9117 12.0883 54 27 54Z" fill="#00BEE3"/>
<path d="M27 50C39.7025 50 50 39.7025 50 27C50 14.2975 39.7025 4 27 4C14.2975 4 4 14.2975 4 27C4 39.7025 14.2975 50 27 50Z" fill="#00BEE3"/>
<path d="M17 31.0005V19.0005C17.1 18.8235 17.8 19.0005 18 19.0005C24.1 19.0005 29.9 19.0005 36 19.0005C36.345 19.0005 37 18.6565 37 19.0005C37 22.7565 37 26.2445 37 30.0005C36.932 30.2385 36.8045 30.4551 36.6296 30.6301C36.4546 30.8051 36.2379 30.9326 36 31.0005H33C33 31.1335 33.012 30.9005 33 31.0005C32.979 31.1735 32.853 31.9005 33 32.0005C33.3469 32.1964 33.6275 32.4914 33.8056 32.8477C33.9838 33.2041 34.0515 33.6055 34 34.0005C33.883 34.4005 33.307 34.7445 33 35.0005C33.244 35.1725 33.783 34.8085 34 35.0005C34.6959 35.8408 35.0526 36.9108 35 38.0005C35 38.1945 35.181 37.9155 35 38.0005H19C18.877 37.9305 19.008 38.1605 19 38.0005C18.9524 36.9115 19.3085 35.8432 20 35.0005C20.242 34.7725 20.73 35.2005 21 35.0005C20.7606 34.8305 20.5654 34.6055 20.4307 34.3446C20.2959 34.0836 20.2256 33.7942 20.2256 33.5005C20.2256 33.2069 20.2959 32.9174 20.4307 32.6565C20.5654 32.3955 20.7606 32.1706 21 32.0005C21.0176 31.6674 21.0176 31.3336 21 31.0005C21.009 30.8295 21 31.1865 21 31.0005C20.045 31.0005 18.955 30.9945 18 31.0005C17.807 31.0025 17.09 31.1795 17 31.0005ZM36 19.0005H18V30.0005H21V29.0005C20.713 29.0005 20.274 29.0005 20 29.0005C19.677 29.0005 20 29.3175 20 29.0005C20 28.6635 20 28.3375 20 28.0005C20 27.6005 19.6 27.0005 20 27.0005H24V26.0005C23.907 26.0775 24.072 25.9405 24 26.0005C23.179 26.6845 21.633 26.8645 21 26.0005C20.454 25.2545 20.543 24.7485 20 24.0005C19.817 23.7485 19.756 23.1845 20 23.0005C20.374 22.7175 20.624 22.2805 21 22.0005C21.246 21.8175 21.822 21.7535 22 22.0005C22.412 22.5735 22.589 23.4265 23 24.0005C23.036 24.0505 22.965 23.9545 23 24.0005C23.407 23.7065 23.584 23.2595 24 23.0005C24.416 22.7415 25.468 23.0005 26 23.0005C25.657 22.5775 24.982 22.5005 25 22.0005C25.018 21.5005 25.641 21.3465 26 21.0005C26.665 20.3585 27.224 19.5005 28 20.0005C28.536 20.545 28.886 21.2451 29 22.0005C29.081 22.5685 28.351 22.5225 28 23.0005C28.5422 22.9485 29.0892 23.0106 29.6059 23.1828C30.1226 23.3551 30.5975 23.6336 31 24.0005C31.051 23.9365 30.971 24.0405 31 24.0005C31.418 23.4165 31.581 22.5835 32 22.0005C32.173 21.7595 32.766 21.8275 33 22.0005C33.387 22.2865 33.617 22.7095 34 23.0005C34.218 23.1655 34.16 23.7795 34 24.0005C33.436 24.7795 33.578 25.2315 33 26.0005C32.422 26.7695 30.781 26.5435 30 26.0005C29.87 25.9105 30.141 26.1105 30 26.0005V27.0005H34C34.069 27.0005 33.932 26.9915 34 27.0005C34.18 27.0235 34 27.8185 34 28.0005C34.006 28.4255 34.007 28.5755 34 29.0005C34 29.2005 34.2 28.9845 34 29.0005C33.832 29.0135 34.169 29.0005 34 29.0005H33V30.0005H36V19.0005ZM20 29.0005C20.291 29.0005 20.714 29.0005 21 29.0005C21.286 29.0005 22 28.7005 22 29.0005C22 29.6125 22 30.3885 22 31.0005H32V29.0005H34V28.0005H20V29.0005ZM29 27.0005C29.011 26.9645 29 27.0125 29 27.0005C29 26.4195 29 26.5815 29 26.0005C29 25.8355 28.828 25.0755 29 25.0005C29.3272 24.9101 29.6728 24.9101 30 25.0005C30.232 25.2005 30.764 25.8005 31 26.0005C31.53 26.4395 31.593 26.5575 32 26.0005C32.472 25.3545 32.53 24.6475 33 24.0005C33.032 23.9565 33.964 24.0555 34 24.0005C33.745 23.8095 33.254 23.1905 33 23.0005C32.955 23.0585 33.036 22.9505 33 23.0005C32.589 23.5745 31.412 24.4265 31 25.0005C30.809 25.2665 31.254 25.2005 31 25.0005C30.7 24.7595 30.3 24.2445 30 24.0005C29.7 23.7565 29.4 24.0005 29 24.0005C27.712 24.0005 26.288 24.0005 25 24.0005C24.608 24.0005 24.3 23.7585 24 24.0005C23.7 24.2425 23.3 24.7595 23 25.0005C22.736 25.2105 23.2 25.2765 23 25.0005C22.592 24.4315 21.407 23.5695 21 23.0005C20.962 22.9475 21.045 23.0595 21 23.0005C20.74 23.2005 20.249 23.8125 20 24.0005C20.036 24.0555 20.971 23.9615 21 24.0005C21.474 24.6525 21.524 25.3505 22 26.0005C22.4 26.5485 22.478 26.4315 23 26.0005C23.236 25.8055 23.768 25.2005 24 25.0005C24.3263 24.904 24.6737 24.904 25 25.0005C25.171 25.0795 25 25.8375 25 26.0005C25 26.5315 25 26.4695 25 27.0005C25 27.0665 25 26.9325 25 27.0005H27V25.0005V27.0005H29ZM25 37.0005H29C29.0134 36.6102 28.9289 36.2227 28.7542 35.8734C28.5796 35.5241 28.3203 35.224 28 35.0005C27.7177 34.77 27.3645 34.6441 27 34.6441C26.6355 34.6441 26.2823 34.77 26 35.0005C25.6774 35.2218 25.4164 35.5214 25.2415 35.8713C25.0666 36.2211 24.9835 36.6097 25 37.0005ZM20 37.0005H24C24.0191 36.6094 23.9372 36.2198 23.762 35.8695C23.5869 35.5192 23.3244 35.22 23 35.0005C22.7177 34.77 22.3645 34.6441 22 34.6441C21.6355 34.6441 21.2823 34.77 21 35.0005C20.6815 35.2258 20.4235 35.5262 20.2491 35.8751C20.0746 36.224 19.9891 36.6106 20 37.0005ZM30 37.0005H34C34 36.4701 33.7893 35.9614 33.4142 35.5863C33.0391 35.2113 32.5304 35.0005 32 35.0005C31.4696 35.0005 30.9609 35.2113 30.5858 35.5863C30.2107 35.9614 30 36.4701 30 37.0005ZM24 36.0005C24.331 35.3925 25.393 35.2885 26 35.0005C25.4814 34.4438 25.1342 33.7495 25 33.0005C24.949 32.4645 25.645 32.4325 26 32.0005H23C23.361 32.4415 24.052 32.4585 24 33.0005C23.8561 33.7462 23.5102 34.438 23 35.0005C23.615 35.2905 23.674 35.3995 24 36.0005ZM28 32.0005C28.378 32.4495 29.052 32.4625 29 33.0005C28.8596 33.7474 28.5133 34.4401 28 35.0005C28.617 35.2875 29.672 35.4085 30 36.0005C30.0843 35.7714 30.2173 35.5632 30.39 35.3905C30.5627 35.2179 30.7708 35.0848 31 35.0005C30.107 34.1405 30.307 33.0105 31 32.0005H28ZM27 32.0005C26.3 32.0005 26 32.3005 26 33.0005C26 33.7005 26.3 34.0005 27 34.0005C27.7 34.0005 28 33.7005 28 33.0005C28 32.3005 27.7 31.9975 27 32.0005ZM27 23.0005C27.705 23.0005 28 22.7005 28 22.0005C28 21.3005 27.693 20.9935 27 21.0005C26.307 21.0075 26 21.3005 26 22.0005C26 22.7005 26.3 23.0055 27 23.0005ZM22 34.0005C22.7 34.0005 23 33.7005 23 33.0005C23 32.3005 22.7 32.0005 22 32.0005C21.3 32.0005 21 32.3005 21 33.0005C21 33.7005 21.3 34.0025 22 34.0005ZM32 34.0005C32.7 34.0005 33.009 33.6935 33 33.0005C32.991 32.3075 32.7 32.0005 32 32.0005C31.3 32.0005 30.992 32.3005 31 33.0005C31.008 33.7005 31.3 34.0045 32 34.0005Z" fill="white"/>
<path d="M33 21H32V20H33V21Z" fill="white"/>
<path d="M34 20V21H33V20H34Z" fill="white"/>
</svg>
