<svg width="54" height="54" viewBox="0 0 54 54" fill="none" xmlns="http://www.w3.org/2000/svg">
<path opacity="0.46" d="M27 54C41.9117 54 54 41.9117 54 27C54 12.0883 41.9117 0 27 0C12.0883 0 0 12.0883 0 27C0 41.9117 12.0883 54 27 54Z" fill="#00BEE3"/>
<path d="M27 50C39.7025 50 50 39.7025 50 27C50 14.2975 39.7025 4 27 4C14.2975 4 4 14.2975 4 27C4 39.7025 14.2975 50 27 50Z" fill="#00BEE3"/>
<path d="M13.0027 28.9949C12.7117 28.9669 12.2417 29.0509 12.0027 28.9949C11.4337 28.8609 11.0087 27.5789 11.0027 26.9949C10.9907 25.7749 10.9867 25.2149 11.0027 23.9949C11.0117 23.2769 11.2647 21.9949 12.0027 21.9949C13.5467 21.9889 15.4587 21.9949 17.0027 21.9949H25.0027C25.9627 21.9949 26.0027 23.0309 26.0027 23.9949C26.0027 25.0859 26.0027 25.9039 26.0027 26.9949C26.0027 27.8949 25.9077 28.9949 25.0027 28.9949C22.1377 28.9949 18.8677 29.0009 16.0027 28.9949C15.8027 28.9949 16.1217 28.8159 16.0027 28.9949C15.4917 29.7639 14.5267 30.2339 14.0027 30.9949C13.7147 31.4129 13.4027 32.1229 13.0027 31.9949C12.6027 31.8669 13.0027 31.4949 13.0027 30.9949C13.0007 30.3449 13.0027 29.6579 13.0027 28.9949ZM13.0027 30.9949C13.5887 30.1419 14.4287 28.8559 15.0027 27.9949C15.1757 27.7359 15.6897 27.9949 16.0027 27.9949C18.9707 28.0039 22.0347 27.9949 25.0027 27.9949C25.4227 27.9949 25.0027 27.4059 25.0027 26.9949C25.0027 25.8849 25.0027 25.1049 25.0027 23.9949C25.0027 23.6009 25.4027 22.9949 25.0027 22.9949C20.7857 22.9949 16.2197 22.9949 12.0027 22.9949C11.6177 22.9949 12.0027 23.6189 12.0027 23.9949C12.0027 25.1229 12.0027 25.8669 12.0027 26.9949C12.0027 27.3549 11.6367 27.9899 12.0027 27.9949C12.2247 27.9949 12.7807 27.9949 13.0027 27.9949C13.4327 27.9949 13.0027 27.5559 13.0027 27.9949C13.0027 28.6789 13.0027 29.3109 13.0027 29.9949V30.9949Z" fill="white"/>
<path d="M36 22C36 22.7 36 23.345 36 24C36 24.5 35.419 23.874 35 24C34.6 24.12 34.281 24.406 34 24C33.48 23.247 32.5 22.763 32 22C31.865 21.8 32.235 21 32 21C29.163 21.008 25.838 22 23 22C22.037 22 22 20.959 22 20C22 18.9 22 18.1 22 17C22 16.134 22.138 15 23 15C27.233 15 31.767 15 36 15C36.864 15 37 16.13 37 17C37 18.091 37 18.909 37 20C37 20.987 36.981 21.995 36 22ZM35 24V23C35 22.3 35 21.7 35 21C35 20.638 34.636 21.005 35 21C35.222 21 35.778 21 36 21C36.2511 20.9607 36.4832 20.8427 36.663 20.663C36.8427 20.4832 36.9607 20.2511 37 20C37 18.909 37 18.091 37 17C36.9607 16.7489 36.8427 16.5168 36.663 16.337C36.4832 16.1573 36.2511 16.0393 36 16H23C22.565 16 23 16.564 23 17C23 18.073 23 18.927 23 20C23 20.509 22.49 21 23 21C25.94 21 29.06 21.011 32 21C32.337 21 32.817 20.725 33 21C33.568 21.853 34.419 23.155 35 24Z" fill="white"/>
<path d="M36 36C36 36.7 36 37.344 36 38C36 38.5 35.419 38.874 35 39C34.6 39.12 34.281 38.406 34 38C33.48 37.247 32.5 36.763 32 36C31.865 35.8 32.235 36 32 36C29.163 36.008 25.838 36 23 36C22.037 36 22 34.959 22 34C22 32.9 22 32.1 22 31C22 30.134 22.137 29 23 29C27.233 29 31.767 29 36 29C36.864 29 37 30.13 37 31C37 32.091 37 32.909 37 34C37 34.987 36.981 35.995 36 36ZM35 38V37C35 36.3 35 35.7 35 35C35 34.637 34.636 35.005 35 35C35.222 35 35.778 35 36 35C36.2511 34.9607 36.4832 34.8427 36.663 34.663C36.8427 34.4832 36.9607 34.2511 37 34C37 32.909 37 32.091 37 31C36.9607 30.7489 36.8427 30.5168 36.663 30.337C36.4832 30.1573 36.2511 30.0393 36 30H23C22.565 30 23 30.564 23 31C23 32.073 23 32.927 23 34C23 34.509 22.491 35 23 35C25.95 35 29.05 35.01 32 35C32.316 35 32.828 34.743 33 35C33.575 35.86 34.419 37.147 35 38Z" fill="white"/>
<path d="M17.0047 24.9993H13.0047C12.9217 24.9993 13.0857 25.0143 13.0047 24.9993C12.7667 24.9543 13.0047 25.2453 13.0047 24.9993C13.0047 24.7533 12.7657 24.0423 13.0047 23.9993C13.0947 23.9833 12.9127 23.9993 13.0047 23.9993H21.0047C21.0967 23.9993 20.9147 23.9833 21.0047 23.9993C21.2437 24.0423 21.0047 24.7543 21.0047 24.9993C21.0047 25.2443 21.2427 24.9543 21.0047 24.9993C20.9237 25.0143 21.0877 24.9993 21.0047 24.9993H17.0047Z" fill="white"/>
<path d="M17.0047 26.9988H13.0047C12.9217 26.9988 13.0857 27.0138 13.0047 26.9988C12.7667 26.9538 13.0047 26.2448 13.0047 25.9988C13.0047 25.7528 12.7657 26.0418 13.0047 25.9988C13.0947 25.9828 12.9127 25.9988 13.0047 25.9988H21.0047C21.0967 25.9988 20.9147 25.9828 21.0047 25.9988C21.2437 26.0418 21.0047 25.7538 21.0047 25.9988C21.0047 26.2438 21.2427 26.9538 21.0047 26.9988C20.9237 27.0138 21.0877 26.9988 21.0047 26.9988H17.0047Z" fill="white"/>
<path d="M23 24C23.722 24 25 24.278 25 25C24.8795 25.4835 24.6297 25.9251 24.2774 26.2774C23.9251 26.6298 23.4835 26.8795 23 27C22.276 27 22 26.723 22 26C22 25.277 22.26 24 23 24ZM23 25C22.764 24.988 23.016 24.762 23 25C22.984 25.238 22.762 25.98 23 26C23.238 26.02 23.991 26.249 24 26C24.009 25.751 23.237 25.013 23 25Z" fill="white"/>
<path d="M31.0009 17.999H27.0009C26.9179 17.999 27.0829 18.009 27.0009 17.999C26.7599 17.97 26.9869 17.228 27.0009 16.999C27.0159 16.754 26.7609 17.039 27.0009 16.999C27.0729 16.987 26.9269 16.999 27.0009 16.999H35.0009C35.0659 16.999 34.9369 16.993 35.0009 16.999C35.2609 17.022 36.0069 17.757 36.0009 17.999C35.9949 18.241 35.2479 17.976 35.0009 17.999C34.9089 18.007 35.0929 17.999 35.0009 17.999H31.0009Z" fill="white"/>
<path d="M31.0047 18.9987C32.2897 18.9987 33.7197 18.9987 35.0047 18.9987C35.3327 18.9987 35.9717 18.7467 36.0047 18.9987C36.0357 19.2347 35.2527 19.9627 35.0047 19.9987C34.9137 20.0117 35.0967 19.9987 35.0047 19.9987H27.0047C26.9127 19.9987 27.0947 20.0157 27.0047 19.9987C26.7667 19.9547 27.0047 19.2447 27.0047 18.9987C27.0047 18.7527 26.7657 19.0427 27.0047 18.9987C27.0857 18.9837 26.9217 18.9987 27.0047 18.9987H31.0047Z" fill="white"/>
<path d="M25.0079 20C24.2719 20 24.0019 18.736 24.0079 18C24.0139 17.264 24.2799 17 25.0079 17C25.7359 17 26.0079 17.279 26.0079 18C26.0079 18.739 25.7389 19.999 25.0079 20ZM25.0079 19C25.2459 19 24.9989 18.238 25.0079 18C25.0169 17.762 25.2569 18 25.0079 18C24.7589 18 25.0079 17.762 25.0079 18C25.0079 18.238 24.7649 18.995 25.0079 19Z" fill="white"/>
<path d="M31.0047 30.9989H35.0047C35.0877 30.9989 34.9237 30.9839 35.0047 30.9989C35.2437 31.0429 36.0047 31.7539 36.0047 31.9989C36.0047 32.2439 35.2427 31.9539 35.0047 31.9989C34.9237 32.0139 35.0877 31.9989 35.0047 31.9989H27.0047C26.9217 31.9989 27.0857 32.0139 27.0047 31.9989C26.7667 31.9539 27.0047 32.2449 27.0047 31.9989C27.0047 31.7529 26.7657 31.0429 27.0047 30.9989C27.0857 30.9839 26.9217 30.9989 27.0047 30.9989H31.0047Z" fill="white"/>
<path d="M31.0047 32.9986H35.0047C35.0877 32.9986 34.9237 32.9836 35.0047 32.9986C35.2437 33.0426 36.0047 32.7536 36.0047 32.9986C36.0047 33.2436 35.2427 33.9536 35.0047 33.9986C34.9237 34.0136 35.0877 33.9986 35.0047 33.9986H27.0047C26.9217 33.9986 27.0857 34.0136 27.0047 33.9986C26.7667 33.9536 27.0047 33.2446 27.0047 32.9986C27.0047 32.7526 26.7657 33.0426 27.0047 32.9986C27.0857 32.9836 26.9217 32.9986 27.0047 32.9986H31.0047Z" fill="white"/>
<path d="M26.0001 33C26.0051 33.74 25.7361 34 25.0001 34C24.2641 34 24.0071 33.723 24.0001 33C23.9931 32.277 24.2611 31 25.0001 31C25.7221 30.996 25.9951 32.278 26.0001 33ZM25.0001 32C24.7621 32 25.0001 32.762 25.0001 33C25.0001 33.238 24.7621 33 25.0001 33C25.2381 33 25.0081 33.249 25.0001 33C24.9921 32.751 25.2381 31.996 25.0001 32Z" fill="white"/>
</svg>
