<svg width="54" height="54" viewBox="0 0 54 54" fill="none" xmlns="http://www.w3.org/2000/svg">
<path opacity="0.46" d="M27 54C41.9117 54 54 41.9117 54 27C54 12.0883 41.9117 0 27 0C12.0883 0 0 12.0883 0 27C0 41.9117 12.0883 54 27 54Z" fill="#00BEE3"/>
<path d="M27 50C39.7025 50 50 39.7025 50 27C50 14.2975 39.7025 4 27 4C14.2975 4 4 14.2975 4 27C4 39.7025 14.2975 50 27 50Z" fill="#00BEE3"/>
<path d="M17.0032 29.0001V18.0001C17.2232 17.2901 17.2852 16.9941 18.0032 17.0001C20.3092 17.0211 22.6972 17.0001 25.0032 17.0001H36.0032C36.7462 17.0001 37.0032 17.2881 37.0032 18.0001C37.0032 21.6511 37.0032 25.3491 37.0032 29.0001C37.0032 29.6921 36.6972 29.9921 36.0032 30.0001C35.6032 30.0001 35.4032 30.0001 35.0032 30.0001C35.301 30.2445 35.544 30.549 35.7163 30.8936C35.8886 31.2382 35.9864 31.6152 36.0032 32.0001C36.0852 32.6871 35.4542 33.4001 35.0032 34.0001C35.3312 34.1081 35.7032 33.9001 36.0032 34.0001C36.7422 34.2491 37.0032 34.2221 37.0032 35.0001C37.0032 35.4731 36.9902 36.5271 37.0032 37.0001C37.0102 37.2531 37.2302 36.8741 37.0032 37.0001H17.0032V35.0001C17.1762 34.2411 17.2762 34.1821 18.0032 34.0001C18.2162 33.9471 18.8242 34.0601 19.0032 34.0001C18.4032 32.6001 17.6032 30.9621 19.0032 30.0001C18.4562 30.0001 18.5372 30.0001 18.0032 30.0001C17.5892 30.0001 17.2322 29.3481 17.0032 29.0001C17.0662 29.1411 16.9192 28.8731 17.0032 29.0001ZM35.0032 17.0001V18.0001C35.0032 20.8331 35.0032 23.1671 35.0032 26.0001C35.0032 26.3901 35.2812 27.0001 35.0032 27.0001C34.7252 27.0001 34.0032 26.3791 34.0032 26.0001C34.0032 23.1601 34.0032 20.8401 34.0032 18.0001V17.0001H18.0032C17.7555 17.0473 17.5277 17.168 17.3494 17.3463C17.1711 17.5246 17.0505 17.7524 17.0032 18.0001C17.0032 21.5571 17.0032 25.4431 17.0032 29.0001C17.0032 29.0741 16.9922 28.9271 17.0032 29.0001C17.0262 29.1481 17.8562 28.9941 18.0032 29.0001C18.3712 29.0161 18.6262 29.0001 19.0032 29.0001C19.0032 26.2551 19.0032 23.7451 19.0032 21.0001C19.0032 20.6191 18.7352 19.9941 19.0032 20.0001C19.2712 20.0061 20.0032 20.6281 20.0032 21.0001C20.0032 23.7521 20.0032 26.2481 20.0032 29.0001H36.0032C36.4092 29.0001 37.0032 29.4141 37.0032 29.0001C37.0032 25.4431 37.0032 21.5571 37.0032 18.0001C37.0032 17.9391 37.0082 18.0601 37.0032 18.0001C36.7675 17.5816 36.4217 17.2358 36.0032 17.0001C35.6592 16.9911 35.3702 17.0001 35.0032 17.0001ZM17.0032 37.0001H23.0032C23.0032 36.6001 23.0032 35.3841 23.0032 35.0001C23.0032 34.5741 23.4032 35.1361 23.0032 35.0001C22.5812 34.8571 21.4282 34.1321 21.0032 34.0001C20.9272 33.9771 21.0752 33.9711 21.0032 34.0001C20.4492 34.2231 20.5562 34.2251 20.0032 34.0001C19.6703 33.9775 19.3362 33.9775 19.0032 34.0001C18.5462 34.1441 18.4562 34.8451 18.0032 35.0001C17.6832 35.1101 17.0152 34.6621 17.0032 35.0001C16.9882 35.4181 17.0032 36.5671 17.0032 37.0001ZM30.0032 37.0001C30.0032 36.6001 30.0032 35.3901 30.0032 35.0001C30.0032 34.5891 29.3952 35.1331 29.0032 35.0001C28.5752 34.8551 28.4352 34.1331 28.0032 34.0001C27.9282 33.9771 28.0762 33.9711 28.0032 34.0001C27.3547 34.2197 26.6518 34.2197 26.0032 34.0001C25.9392 33.9741 26.0652 33.9801 26.0032 34.0001C25.5402 34.1471 25.4622 34.8421 25.0032 35.0001C24.7172 35.1001 24.0182 34.7001 24.0032 35.0001C23.9812 35.4431 24.0032 36.5471 24.0032 37.0001H30.0032ZM37.0032 37.0001C37.0122 36.9721 37.0032 37.0121 37.0032 37.0001C37.0032 36.6221 37.0032 35.3781 37.0032 35.0001C37.0032 34.6001 36.3832 35.1311 36.0032 35.0001C35.5692 34.8511 35.4412 34.1371 35.0032 34.0001C34.6703 33.9757 34.3361 33.9757 34.0032 34.0001C33.4432 34.2271 33.5622 34.2311 33.0032 34.0001C32.9462 33.9761 33.0602 33.9821 33.0032 34.0001C32.5412 34.1481 31.4622 34.8411 31.0032 35.0001C30.7252 35.1001 31.0182 34.7001 31.0032 35.0001C30.9802 35.4491 31.0032 36.5421 31.0032 37.0001H37.0032ZM25.0032 34.0001C24.6534 33.3261 24.5619 32.5475 24.7461 31.8108C24.9303 31.0741 25.3774 30.4301 26.0032 30.0001H21.0032C21.3077 30.2386 21.5553 30.5417 21.7283 30.8876C21.9012 31.2335 21.9951 31.6135 22.0032 32.0001C22.0852 32.6861 22.4482 33.4001 22.0032 34.0001C22.5702 34.2541 23.5592 33.5351 24.0032 34.0001C24.4572 33.5301 24.4582 34.2461 25.0032 34.0001ZM28.0032 30.0001C28.3101 30.2363 28.5596 30.539 28.7327 30.8853C28.9059 31.2317 28.9984 31.6128 29.0032 32.0001C29.0842 32.6861 29.4452 33.4101 29.0032 34.0001C29.5652 34.2561 29.5552 33.5311 30.0032 34.0001C30.4532 33.5311 31.4412 34.2541 32.0032 34.0001C31.5592 33.4071 31.9222 32.6861 32.0032 32.0001C32.0106 31.6133 32.1043 31.2331 32.2773 30.8871C32.4502 30.5411 32.6983 30.2381 33.0032 30.0001H28.0032ZM19.0032 32.0001C19.0122 32.1281 18.9872 31.8731 19.0032 32.0001C19.0662 32.4881 19.5122 33.8741 20.0032 34.0001C20.4942 34.1261 20.6972 33.4071 21.0032 33.0001C21.3092 32.5931 22.0462 32.4671 22.0032 32.0001C21.9562 31.5001 21.4622 31.1901 21.0032 31.0001C20.5442 30.8101 20.3952 30.6881 20.0032 31.0001C19.6112 31.3121 18.9872 31.5191 19.0032 32.0001ZM28.0032 32.0001C27.9952 31.8791 28.0152 32.1211 28.0032 32.0001C27.9754 31.7444 27.8611 31.506 27.6792 31.3241C27.4974 31.1423 27.2589 31.028 27.0032 31.0001C26.4372 30.8911 26.2752 30.5001 26.0032 31.0001C25.8032 31.3761 25.9642 31.6001 26.0032 32.0001C26.0812 32.8101 26.2332 33.2661 27.0032 33.0001C27.4762 32.8371 28.0412 32.7681 28.0032 32.0001ZM32.0032 32.0001C32.0092 32.1081 31.9922 31.8931 32.0032 32.0001C32.0622 32.5811 32.4422 33.9281 33.0032 34.0001C33.3931 34.0106 33.7796 33.9248 34.1284 33.7504C34.4772 33.576 34.7777 33.3183 35.0032 33.0001C35.0879 32.6721 35.0879 32.328 35.0032 32.0001C34.9562 31.5141 34.4422 31.1921 34.0032 31.0001C33.5642 30.8081 33.3982 30.7001 33.0032 31.0001C32.5832 31.3141 31.9822 31.5021 32.0032 32.0001Z" fill="white"/>
<path d="M27.0034 18.9957C27.5394 18.9538 28.0781 19.0285 28.5825 19.2147C29.0868 19.4008 29.5448 19.6941 29.9249 20.0742C30.3051 20.4544 30.5983 20.9124 30.7845 21.4167C30.9707 21.921 31.0454 22.4598 31.0034 22.9957C30.9924 25.4557 29.4534 28.0117 27.0034 27.9957C24.5534 27.9797 23.0034 25.4417 23.0034 22.9957C22.9617 22.4598 23.0365 21.9212 23.2227 21.4169C23.409 20.9127 23.7022 20.4547 24.0823 20.0746C24.4625 19.6945 24.9204 19.4012 25.4246 19.215C25.9289 19.0287 26.4675 18.9539 27.0034 18.9957V18.9957ZM31.0034 22.9957C31.0144 20.9907 29.0154 20.0087 27.0034 19.9957C24.9914 19.9827 23.0164 20.9867 23.0034 22.9957C23.0034 24.0566 23.4249 25.074 24.175 25.8241C24.9252 26.5743 25.9426 26.9957 27.0034 26.9957C28.0643 26.9957 29.0817 26.5743 29.8319 25.8241C30.582 25.074 31.0034 24.0566 31.0034 22.9957Z" fill="white"/>
<path d="M35 28.0039C34.786 28.0039 34 28.2179 34 28.0039C34.2163 27.5711 34.5672 27.2202 35 27.0039C35.22 27.0039 35 27.7869 35 28.0039C35.216 27.9959 35 28.2209 35 28.0039Z" fill="white"/>
<path d="M20.0005 19C20.0005 19.212 19.2125 19 19.0005 19C18.7885 19 19.0005 19.21 19.0005 19C19.0005 18.79 18.7905 18 19.0005 18C19.4312 18.2192 19.7813 18.5693 20.0005 19V19Z" fill="white"/>
<path d="M25.0008 22.9993C24.9789 22.6663 24.9789 22.3322 25.0008 21.9993C25.0508 21.4333 26.4808 20.7713 27.0008 20.9993C27.0748 21.0313 26.9328 20.9563 27.0008 20.9993C27.6558 21.4173 28.3498 21.5763 29.0008 21.9993C29.1508 22.1192 29.272 22.2713 29.3553 22.4444C29.4385 22.6175 29.4818 22.8072 29.4818 22.9993C29.4818 23.1914 29.4385 23.381 29.3553 23.5541C29.272 23.7272 29.1508 23.8794 29.0008 23.9993C28.3438 24.4263 27.6638 24.5823 27.0008 24.9993C26.4598 25.3403 26.2008 25.5593 26.0008 24.9993C25.9538 24.8693 25.0008 25.1393 25.0008 24.9993C24.9928 24.5873 25.0008 23.4113 25.0008 22.9993ZM26.0008 24.9993C26.0618 24.9813 25.9848 25.0093 26.0008 24.9993C26.6778 24.5673 27.3238 23.4323 28.0008 22.9993C28.1698 22.8913 28.0958 23.0603 28.0008 22.9993C27.3638 22.5913 26.6378 22.4063 26.0008 21.9993C25.9538 21.9693 26.0788 22.0373 26.0008 21.9993V24.9993Z" fill="white"/>
</svg>
